<?xml version="1.0" standalone="no"?><!-- Generator: Gravit.io --><svg xmlns="http://www.w3.org/2000/svg" xmlns:xlink="http://www.w3.org/1999/xlink" style="isolation:isolate" viewBox="0 0 150 150" width="150" height="150"><defs><clipPath id="_clipPath_KDhFKiEB8a7CBXpPQ1duk8NhBRJHVQUK"><rect width="150" height="150"/></clipPath></defs><g clip-path="url(#_clipPath_KDhFKiEB8a7CBXpPQ1duk8NhBRJHVQUK)"><path d=" M 132.2 72 L 67.6 72 C 66.8 72 66.1 72.8 66.1 73.5 C 66.1 74.2 66.8 75 67.6 75 L 132.2 75 C 133 75 133.7 74.2 133.7 73.5 C 133.7 72.8 133 72 132.2 72 Z " fill="none"/><path d=" M 132.2 84 L 67.6 84 C 66.8 84 66.1 84.8 66.1 85.5 C 66.1 86.2 66.8 87 67.6 87 L 132.2 87 C 133 87 133.7 86.2 133.7 85.5 C 133.7 84.8 133 84 132.2 84 Z " fill="none"/><path d=" M 133.7 97.5 C 133.7 96.8 133 96 132.2 96 L 67.6 96 C 66.8 96 66.1 96.8 66.1 97.5 C 66.1 98.2 66.8 99 67.6 99 L 132.2 99 C 133 99 133.7 98.2 133.7 97.5 Z " fill="none"/><path d=" M 68.7 64 L 78.7 64 C 80.4 64 82 62.5 82 61.1 L 82 52.6 C 82 51.2 80.4 50 78.7 50 L 68.7 50 C 67 50 66 51.2 66 52.6 L 66 61.1 C 66 62.5 67 64 68.7 64 Z " fill="none"/><path d=" M 130.4 103.2 C 124.4 103.2 119.5 108.5 119.5 115.1 L 119.3 127.6 L 141.8 102.8 L 141.7 102.8 L 130.4 103.2 L 130.4 103.2 Z " fill="rgb(63,69,83)"/><path d=" M 130.9 31.6 L 97.7 31.6 L 64.5 31.6 C 60.4 31.6 56.9 34.1 55 37.7 C 52.4 38.8 51.4 41.2 50.8 42.7 C 50.7 43 50.5 43.4 50.4 43.6 C 49.1 44.2 48 44.3 46.7 44.3 C 46.1 44.3 45.5 44.3 44.9 44.2 L 44.4 44.2 C 43.5 40.6 40.3 37.9 36.7 37.9 C 32.3 37.9 28.7 41.7 28.7 46.4 C 28.7 51.1 32.3 54.9 36.7 54.9 C 40.3 54.9 43.3 52.4 44.3 49 L 44.7 49 C 47.2 49.1 49.6 49.2 52.6 47.7 C 53 47.5 53.4 47.2 53.7 46.9 L 53.7 74.6 C 53 74.5 52.2 74.5 51.5 74.4 C 51.2 74.2 50.6 73.3 50.3 72.7 C 49 70.7 47.1 67.6 43 67.4 C 42.5 67.4 41.9 67.3 41.5 67.3 C 40.8 65 38.3 58.9 32.7 58.8 C 30.3 58.7 29.5 58.7 28.4 58.8 L 26.3 58.8 C 25.6 57.5 24.3 56.6 22.8 56.6 C 20.5 56.6 18.7 58.6 18.7 61 C 18.7 63.4 20.6 65.4 22.8 65.4 C 24.8 65.4 26.5 63.8 26.9 61.8 L 28.5 61.8 C 29.6 61.8 30.3 61.8 32.7 61.8 C 35.9 61.9 37.7 65.3 38.5 67.3 C 38 67.3 37.4 67.3 36.8 67.3 L 31.7 67.4 C 26.9 67.4 25.4 71 24.6 72.9 C 24.5 73.2 24.3 73.6 24.2 73.8 C 22.9 74.4 21.8 74.6 20.5 74.6 C 20 74.6 19.4 74.6 18.8 74.5 C 17.9 70.9 14.7 68.3 11.1 68.3 C 6.7 68.3 3.1 72.1 3.1 76.8 C 3.1 81.5 6.7 85.3 11.1 85.3 C 14.7 85.3 17.7 82.8 18.8 79.4 C 21.2 79.5 23.6 79.6 26.4 78.1 C 27.8 77.4 28.3 76 28.9 74.8 C 29.7 73 30.1 72.2 31.8 72.2 L 37 72.1 C 39.1 72.1 40.5 72 42.9 72.2 C 44.6 72.3 45.4 73.5 46.6 75.4 C 47.5 76.8 48.6 78.6 50.6 79.1 C 48.5 79.4 47.4 81.4 46.5 83 C 45.4 85 44.7 86 43.5 86 C 41.4 86.1 40.3 86.1 38.5 86.1 L 36.4 86.1 C 35.8 84.5 34.3 83.3 32.6 83.3 C 30.3 83.3 28.5 85.3 28.5 87.7 C 28.5 90.1 30.4 92.1 32.6 92.1 C 33.6 92.1 34.6 91.7 35.3 91 L 38.4 91 C 39.2 91 40 91 40.7 91 C 41.6 91 42.6 91 43.8 90.9 C 47.6 90.7 49.3 87.5 50.5 85.5 C 50.8 85 51.2 84.2 51.5 83.9 C 52.3 83.8 53.1 83.7 54 83.7 L 54 105 C 52.4 105 50.8 104.9 49.1 104.8 C 46.6 104.7 46.4 103.5 45.9 101.4 C 45.5 99.3 44.9 96.2 40.7 96.1 C 37.4 96 33.9 95.9 30.4 96 C 29.5 93.2 27 91.1 24.1 91.1 C 20.4 91.1 17.4 94.3 17.4 98.2 C 17.4 102.1 20.4 105.2 24.1 105.2 C 27.5 105.2 30.4 102.4 30.7 98.9 C 34.1 98.8 37.5 98.9 40.7 99 C 42.6 99 42.8 99.7 43.2 102 C 43.6 104 44.2 106.8 47.6 107.6 C 44.4 108.5 43.9 111.2 43.5 113.1 C 43.1 115.3 42.8 116 41 116.1 L 39.5 116.2 C 39.2 114.1 37.5 112.5 35.4 112.5 C 33.1 112.5 31.3 114.5 31.3 116.9 C 31.3 119.3 33.2 121.3 35.4 121.3 C 36.9 121.3 38.2 120.5 38.9 119.2 L 41 119.1 C 45.1 119 45.8 115.9 46.2 113.8 C 46.6 111.7 46.9 110.5 49.4 110.3 C 51 110.2 52.5 110.2 54 110.2 L 54 115.5 C 54 122.1 58.9 127.4 64.9 127.4 L 98.1 127.4 L 119.7 127.5 L 119.9 115 C 119.9 108.4 124.8 103.1 130.8 103.1 L 142 102.9 L 142.1 102.9 L 142.1 43.5 C 141.7 36.9 136.9 31.6 130.9 31.6 Z  M 132.2 74.6 L 67.6 74.6 C 66.8 74.6 66.1 74 66.1 73.3 C 66.1 72.6 66.8 72 67.6 72 L 132.2 72 C 133 72 133.7 72.6 133.7 73.3 C 133.7 74.1 133 74.6 132.2 74.6 Z  M 133.7 85.7 C 133.7 86.4 133 87 132.2 87 L 67.6 87 C 66.8 87 66.1 86.4 66.1 85.7 C 66.1 85 66.8 84.4 67.6 84.4 L 132.2 84.4 C 133 84.4 133.7 85 133.7 85.7 Z  M 65.7 52.6 C 65.7 51.2 67.1 50 68.7 50 L 78.7 50 C 80.4 50 81.7 51.2 81.7 52.6 L 81.7 61.1 C 81.7 62.5 80.3 63.7 78.7 63.7 L 68.7 63.7 C 67 63.7 65.7 62.5 65.7 61.1 L 65.7 52.6 L 65.7 52.6 Z  M 67.6 98.9 C 66.8 98.9 66.1 98.3 66.1 97.6 C 66.1 96.9 66.8 96.3 67.6 96.3 L 132.2 96.3 C 133 96.3 133.7 96.9 133.7 97.6 C 133.7 98.3 133 98.9 132.2 98.9 L 67.6 98.9 L 67.6 98.9 Z " fill-rule="evenodd" fill="rgb(135,10,0)"/></g></svg>