<?xml version="1.0" encoding="UTF-8" standalone="no"?>
<!-- Generator: Adobe Illustrator 18.1.0, SVG Export Plug-In . SVG Version: 6.00 Build 0)  -->

<svg
   xmlns:dc="http://purl.org/dc/elements/1.1/"
   xmlns:cc="http://creativecommons.org/ns#"
   xmlns:rdf="http://www.w3.org/1999/02/22-rdf-syntax-ns#"
   xmlns:svg="http://www.w3.org/2000/svg"
   xmlns="http://www.w3.org/2000/svg"
   xmlns:sodipodi="http://sodipodi.sourceforge.net/DTD/sodipodi-0.dtd"
   xmlns:inkscape="http://www.inkscape.org/namespaces/inkscape"
   version="1.1"
   id="Layer_1"
   x="0px"
   y="0px"
   viewBox="0 0 150 150"
   enable-background="new 0 0 150 150"
   xml:space="preserve"
   sodipodi:docname="NLP-Lab-Logo.svg"
   inkscape:version="0.92.3 (2405546, 2018-03-11)"><metadata
   id="metadata21"><rdf:RDF><cc:Work
       rdf:about=""><dc:format>image/svg+xml</dc:format><dc:type
         rdf:resource="http://purl.org/dc/dcmitype/StillImage" /><dc:title></dc:title></cc:Work></rdf:RDF></metadata><defs
   id="defs19" /><sodipodi:namedview
   pagecolor="#ffffff"
   bordercolor="#666666"
   borderopacity="1"
   objecttolerance="10"
   gridtolerance="10"
   guidetolerance="10"
   inkscape:pageopacity="0"
   inkscape:pageshadow="2"
   inkscape:window-width="640"
   inkscape:window-height="480"
   id="namedview17"
   showgrid="false"
   inkscape:zoom="1.5733333"
   inkscape:cx="75"
   inkscape:cy="75"
   inkscape:window-x="0"
   inkscape:window-y="0"
   inkscape:window-maximized="0"
   inkscape:current-layer="Layer_1" />
<g
   id="g14">
	<path
   fill="none"
   d="M132.2,72H67.6c-0.8,0-1.5,0.8-1.5,1.5c0,0.7,0.7,1.5,1.5,1.5h64.6c0.8,0,1.5-0.8,1.5-1.5   C133.7,72.8,133,72,132.2,72z"
   id="path2" />
	<path
   fill="none"
   d="M132.2,84H67.6c-0.8,0-1.5,0.8-1.5,1.5c0,0.7,0.7,1.5,1.5,1.5h64.6c0.8,0,1.5-0.8,1.5-1.5   C133.7,84.8,133,84,132.2,84z"
   id="path4" />
	<path
   fill="none"
   d="M133.7,97.5c0-0.7-0.7-1.5-1.5-1.5H67.6c-0.8,0-1.5,0.8-1.5,1.5c0,0.7,0.7,1.5,1.5,1.5h64.6   C133,99,133.7,98.2,133.7,97.5z"
   id="path6" />
	<path
   fill="none"
   d="M68.7,64h10c1.7,0,3.3-1.5,3.3-2.9v-8.5c0-1.4-1.6-2.6-3.3-2.6h-10C67,50,66,51.2,66,52.6v8.5   C66,62.5,67,64,68.7,64z"
   id="path8" />
	<path
   fill="#3F4553"
   d="M130.4,103.2c-6,0-10.9,5.3-10.9,11.9l-0.2,12.5l22.5-24.8l-0.1,0L130.4,103.2z"
   id="path10" />
	<path
   fill-rule="evenodd"
   clip-rule="evenodd"
   fill="#67ADBB"
   d="M130.9,31.6H97.7H64.5c-4.1,0-7.6,2.5-9.5,6.1   c-2.6,1.1-3.6,3.5-4.2,5c-0.1,0.3-0.3,0.7-0.4,0.9c-1.3,0.6-2.4,0.7-3.7,0.7c-0.6,0-1.2,0-1.8-0.1l-0.5,0c-0.9-3.6-4.1-6.3-7.7-6.3   c-4.4,0-8,3.8-8,8.5c0,4.7,3.6,8.5,8,8.5c3.6,0,6.6-2.5,7.6-5.9l0.4,0c2.5,0.1,4.9,0.2,7.9-1.3c0.4-0.2,0.8-0.5,1.1-0.8v27.7   c-0.7-0.1-1.5-0.1-2.2-0.2c-0.3-0.2-0.9-1.1-1.2-1.7c-1.3-2-3.2-5.1-7.3-5.3c-0.5,0-1.1-0.1-1.5-0.1c-0.7-2.3-3.2-8.4-8.8-8.5   c-2.4-0.1-3.2-0.1-4.3,0l-2.1,0c-0.7-1.3-2-2.2-3.5-2.2c-2.3,0-4.1,2-4.1,4.4c0,2.4,1.9,4.4,4.1,4.4c2,0,3.7-1.6,4.1-3.6l1.6,0   c1.1,0,1.8,0,4.2,0c3.2,0.1,5,3.5,5.8,5.5c-0.5,0-1.1,0-1.7,0l-5.1,0.1c-4.8,0-6.3,3.6-7.1,5.5c-0.1,0.3-0.3,0.7-0.4,0.9   c-1.3,0.6-2.4,0.8-3.7,0.8c-0.5,0-1.1,0-1.7-0.1c-0.9-3.6-4.1-6.2-7.7-6.2c-4.4,0-8,3.8-8,8.5c0,4.7,3.6,8.5,8,8.5   c3.6,0,6.6-2.5,7.7-5.9c2.4,0.1,4.8,0.2,7.6-1.3c1.4-0.7,1.9-2.1,2.5-3.3c0.8-1.8,1.2-2.6,2.9-2.6l5.2-0.1c2.1,0,3.5-0.1,5.9,0.1   c1.7,0.1,2.5,1.3,3.7,3.2c0.9,1.4,2,3.2,4,3.7c-2.1,0.3-3.2,2.3-4.1,3.9c-1.1,2-1.8,3-3,3c-2.1,0.1-3.2,0.1-5,0.1l-2.1,0   c-0.6-1.6-2.1-2.8-3.8-2.8c-2.3,0-4.1,2-4.1,4.4c0,2.4,1.9,4.4,4.1,4.4c1,0,2-0.4,2.7-1.1l3.1,0c0.8,0,1.6,0,2.3,0   c0.9,0,1.9,0,3.1-0.1c3.8-0.2,5.5-3.4,6.7-5.4c0.3-0.5,0.7-1.3,1-1.6c0.8-0.1,1.6-0.2,2.5-0.2v21.3c-1.6,0-3.2-0.1-4.9-0.2   c-2.5-0.1-2.7-1.3-3.2-3.4c-0.4-2.1-1-5.2-5.2-5.3c-3.3-0.1-6.8-0.2-10.3-0.1c-0.9-2.8-3.4-4.9-6.3-4.9c-3.7,0-6.7,3.2-6.7,7.1   c0,3.9,3,7,6.7,7c3.4,0,6.3-2.8,6.6-6.3c3.4-0.1,6.8,0,10,0.1c1.9,0,2.1,0.7,2.5,3c0.4,2,1,4.8,4.4,5.6c-3.2,0.9-3.7,3.6-4.1,5.5   c-0.4,2.2-0.7,2.9-2.5,3l-1.5,0.1c-0.3-2.1-2-3.7-4.1-3.7c-2.3,0-4.1,2-4.1,4.4c0,2.4,1.9,4.4,4.1,4.4c1.5,0,2.8-0.8,3.5-2.1   l2.1-0.1c4.1-0.1,4.8-3.2,5.2-5.3c0.4-2.1,0.7-3.3,3.2-3.5c1.6-0.1,3.1-0.1,4.6-0.1v5.3c0,6.6,4.9,11.9,10.9,11.9h33.2l21.6,0.1   l0.2-12.5c0-6.6,4.9-11.9,10.9-11.9l11.2-0.2l0.1,0V43.5C141.7,36.9,136.9,31.6,130.9,31.6z M132.2,74.6H67.6   c-0.8,0-1.5-0.6-1.5-1.3c0-0.7,0.7-1.3,1.5-1.3h64.6c0.8,0,1.5,0.6,1.5,1.3C133.7,74.1,133,74.6,132.2,74.6z M133.7,85.7   c0,0.7-0.7,1.3-1.5,1.3H67.6c-0.8,0-1.5-0.6-1.5-1.3c0-0.7,0.7-1.3,1.5-1.3h64.6C133,84.4,133.7,85,133.7,85.7z M65.7,52.6   c0-1.4,1.4-2.6,3-2.6h10c1.7,0,3,1.2,3,2.6v8.5c0,1.4-1.4,2.6-3,2.6h-10c-1.7,0-3-1.2-3-2.6V52.6z M67.6,98.9   c-0.8,0-1.5-0.6-1.5-1.3c0-0.7,0.7-1.3,1.5-1.3h64.6c0.8,0,1.5,0.6,1.5,1.3c0,0.7-0.7,1.3-1.5,1.3H67.6z"
   id="path12" />
</g>
</svg>